# xmcd CD database file generated by LOLA_Freedb v0.9beta0
# 
# Track frame offsets:
#      150
#      16791
#      32829
#      56495
#      73265
#      93547
#      114681
#      131169
#      150740
#      167218
# 
# Disc length: 2427 seconds
# 
# Revision: 0 
# Processed by: cddbd v1.5.2PL0 Copyright (c) Steve Scherf et al.
# Submitted via: LOLA_Freedb v0.9beta0
# 
DISCID=8909790a
DTITLE=Daniel Alan - Signed With Fire
DYEAR=2008
DGENRE=
TTITLE0=Daniel Alan - Secret Place
TTITLE1=Daniel Alan - I Came To Worship You
TTITLE2=Daniel Alan - There's A Power In This Place
TTITLE3=Daniel Alan - Holy Spirit Breathe On Me
TTITLE4=Daniel Alan - As I Sit At Your Feet
TTITLE5=Daniel Alan - Beauty Of You
TTITLE6=Daniel Alan - Make Me More Like You Jesus
TTITLE7=Daniel Alan - Your Life Is Not Yours
TTITLE8=Daniel Alan - There's A War Going On
TTITLE9=Daniel Alan - Wet Water Walker
EXTD=
EXTT0=
EXTT1=
EXTT2=
EXTT3=
EXTT4=
EXTT5=
EXTT6=
EXTT7=
EXTT8=
EXTT9=
PLAYORDER=
